<?xml version="1.0" standalone="no"?>
<!DOCTYPE svg PUBLIC "-//W3C//DTD SVG 20010904//EN"
 "http://www.w3.org/TR/2001/REC-SVG-20010904/DTD/svg10.dtd">
<svg version="1.0" xmlns="http://www.w3.org/2000/svg"
 width="364.000000pt" height="364.000000pt" viewBox="0 0 364.000000 364.000000"
 preserveAspectRatio="xMidYMid meet">
<metadata>
Created by potrace 1.14, written by Peter Selinger 2001-2017
</metadata>
<g transform="translate(0.000000,364.000000) scale(0.100000,-0.100000)"
fill="#000000" stroke="none">
<path d="M970 3608 c0 -7 30 -67 66 -133 72 -134 319 -626 376 -750 91 -200
174 -408 213 -535 53 -177 95 -333 110 -410 3 -14 7 -36 10 -50 2 -14 7 -41
10 -60 3 -19 7 -46 10 -60 2 -14 7 -52 10 -85 3 -33 8 -85 11 -115 2 -30 5
-134 5 -230 1 -150 -3 -238 -16 -430 -1 -19 -6 -82 -10 -140 -4 -58 -7 -107
-7 -110 -3 -52 20 -74 48 -45 42 42 181 503 221 735 19 114 25 461 10 595 -42
359 -209 851 -425 1250 -109 201 -126 232 -159 290 -108 186 -230 270 -420
289 -48 5 -63 3 -63 -6z"/>
<path d="M1624 3418 c12 -73 47 -167 179 -478 52 -124 114 -283 136 -355 67
-216 136 -527 157 -710 3 -33 8 -68 10 -78 16 -87 23 -416 12 -562 -9 -119
-24 -163 -155 -460 -115 -260 -144 -348 -124 -368 8 -8 14 -8 23 1 15 15 32
16 23 2 -9 -15 30 -12 77 7 189 74 377 264 482 488 140 296 189 624 162 1085
-4 69 -9 141 -11 160 -3 19 -7 60 -10 90 -53 515 -109 714 -234 839 -34 34
-92 71 -112 71 -22 0 -32 -115 -18 -200 5 -30 27 -122 49 -205 22 -82 42 -166
45 -185 11 -69 14 -86 29 -190 8 -58 18 -141 22 -185 3 -44 8 -91 11 -105 9
-43 11 -582 3 -650 -5 -36 -11 -90 -14 -120 -28 -248 -112 -503 -218 -658 -45
-67 -134 -152 -198 -191 l-55 -33 84 85 c46 47 101 111 121 143 50 79 142 256
168 324 21 55 66 224 77 290 3 19 8 46 10 60 14 73 22 424 11 515 -2 17 -7 59
-11 95 -4 36 -8 67 -10 70 -2 3 -6 34 -10 70 -4 36 -9 68 -11 71 -2 4 -6 24
-10 45 -23 152 -142 591 -221 814 -96 273 -235 415 -432 445 l-44 6 7 -43z"/>
<path d="M2789 2248 c-1 -51 -3 -115 -4 -143 -17 -341 -17 -342 -41 -525 -99
-743 -362 -1180 -773 -1284 -90 -23 -139 -29 -256 -28 -138 2 -243 13 -351 37
-232 53 -411 166 -526 333 -27 40 -206 401 -237 479 -11 27 -22 35 -69 48 -57
17 -144 58 -196 93 -58 40 -136 126 -162 178 -14 30 -28 54 -29 54 -5 0 11
-184 21 -235 3 -16 10 -50 15 -75 6 -25 12 -52 14 -60 2 -9 15 -51 30 -95 116
-350 385 -655 723 -825 114 -57 248 -109 320 -125 12 -3 31 -7 43 -10 11 -2
28 -6 37 -9 9 -3 34 -8 56 -12 21 -3 47 -7 57 -9 118 -23 544 -22 749 1 242
27 323 50 465 133 99 58 152 74 300 90 75 8 274 6 315 -4 14 -3 57 -8 97 -11
63 -5 73 -4 91 14 15 15 19 27 14 44 -16 53 -57 113 -120 177 -101 103 -198
145 -357 157 -44 3 -85 7 -92 9 -14 5 -9 98 14 230 14 83 17 167 18 495 0 339
-8 580 -20 600 -1 3 -6 28 -9 55 -14 101 -47 203 -88 268 -17 26 -34 47 -39
47 -5 0 -10 -42 -10 -92z"/>
</g>
</svg>
